<svg width="322" height="83" viewBox="0 0 322 83" fill="none" xmlns="http://www.w3.org/2000/svg">
<path d="M0 61.0693L0.885532 53.1187L7.60261 53.857L17.851 18.491L25.6804 18.7585L30.5184 41.4013L37.1059 17.9238L44.9893 18.4054L51.2312 59.7745L43.2399 60.9302L39.8057 38.1376L33.877 59.2716L26.0368 59.0469L21.1448 36.1365L13.2506 61.8184L0 61.0693Z" fill="white"/>
<path d="M92.2247 51.1393C90.864 53.9001 88.8985 56.372 86.4363 58.3409C84.0713 60.235 81.2635 61.6689 78.1317 62.4393C72.4082 63.8518 66.6414 62.8245 61.9546 60.0316C57.257 57.228 53.6284 52.6481 52.2029 46.966C50.7775 41.2946 51.8142 35.5804 54.6328 30.9363C57.4621 26.2814 62.0842 22.6967 67.8185 21.2842C73.5421 19.8717 79.3089 20.8882 83.9957 23.6918C88.6933 26.4954 92.3218 31.0647 93.7473 36.7575L94.6329 40.3208L63.2073 50.8611C64.0604 51.7599 65.0324 52.5411 66.0907 53.1724C69.0172 54.9167 72.6242 55.5587 76.1987 54.6706C78.1533 54.189 79.892 53.3116 81.3499 52.1452C82.8726 50.9253 84.1037 49.3737 84.9568 47.6294L92.2247 51.1393ZM61.555 35.0346C60.0431 37.5279 59.352 40.5241 59.7516 43.5739L84.5248 35.2594C83.3909 33.2904 81.7711 31.6853 79.8596 30.5403C76.933 28.7961 73.3261 28.1648 69.7516 29.0422C66.1771 29.9197 63.3153 32.1454 61.555 35.0346Z" fill="white"/>
<path d="M101.869 59.6889L92.7324 11.3857L128.931 8.33594L129.59 16.3187L102.398 18.6087C104.568 29.3951 109.957 56.5536 109.957 59.6889H101.869Z" fill="white"/>
<path d="M156.058 62.2784C155.82 61.4973 153.952 56.714 151.62 50.7965C150.712 52.4444 149.568 53.9425 148.239 55.2587C144.654 58.8221 139.687 61.0264 134.201 61.0264C128.715 61.0264 123.747 58.8221 120.151 55.2587C116.555 51.6954 114.33 46.773 114.33 41.337C114.33 35.901 116.555 30.9787 120.151 27.426C123.747 23.8627 128.715 21.6583 134.201 21.6583C137.343 21.6583 140.313 22.3753 142.948 23.6701L148.65 21.4336C148.693 21.5406 162.883 57.11 163.769 59.9564L156.058 62.2784ZM142.527 33.0867C140.399 30.9787 137.451 29.6732 134.201 29.6732C130.939 29.6732 128.002 30.9787 125.864 33.0867C123.736 35.1948 122.419 38.1161 122.419 41.337C122.419 44.5687 123.736 47.4793 125.864 49.598C128.002 51.7061 130.939 53.0116 134.201 53.0116C137.451 53.0116 140.399 51.7061 142.527 49.598C144.654 47.4793 145.972 44.5687 145.972 41.337C145.972 38.1161 144.654 35.1948 142.527 33.0867Z" fill="white"/>
<path d="M120.584 67.5649C125.627 70.7644 131.35 72.8617 137.333 73.6536C143.1 74.424 149.137 73.9746 155.076 72.1234C160.573 70.4113 165.508 67.6505 169.709 64.1192C171.653 62.4927 173.435 60.695 175.033 58.7688L154.396 22.3862L161.437 18.4697L180.011 51.2141L180.065 51.1178C182.43 46.4629 183.877 41.4015 184.212 36.2009C184.536 31.2678 183.856 26.2064 182.02 21.2626L189.612 18.5125C191.836 24.5264 192.657 30.69 192.268 36.7038C191.858 42.9959 190.119 49.1167 187.268 54.7132C184.288 60.588 180.076 65.8848 174.914 70.2293C169.925 74.424 164.029 77.7199 157.474 79.7637C150.411 81.9574 143.197 82.4924 136.286 81.5722C129.093 80.6198 122.247 78.1158 116.221 74.2956L120.584 67.5649Z" fill="white"/>
<path d="M203.09 60.4697L202.647 64.4504L194.623 63.5729L199.493 19.7639L207.377 19.1112L214.753 44.4292L224.31 17.8164L232.129 18.7153L236.556 59.7634L236.988 63.7441L228.964 64.5895L228.532 60.6088L225.984 37.0029L218.165 58.7897L210.487 58.5542L205.282 40.6947L203.09 60.4697Z" fill="white"/>
<path d="M242.193 62.91C242.193 59.9459 238.823 19.7431 238.812 19.6254L246.869 18.962C246.879 19.0155 247.484 26.3134 248.186 34.9703L251.35 32.0918L251.34 32.0704L251.383 32.0597L271.286 13.9326L276.761 19.818L260.324 34.7884C263.651 47.3297 267.743 55.2697 273.035 59.5607C278.586 64.0443 285.929 64.5901 295.595 62.3857L297.387 70.1866C285.238 72.9474 275.702 72.0271 267.949 65.7564C261.934 60.8876 257.301 52.862 253.661 40.845L249.007 45.0933C249.687 53.7609 250.281 61.5617 250.281 62.91H242.193Z" fill="white"/>
<path d="M321.967 59.1003L307.377 61.5935L307.064 57.1634C306.989 55.997 306.859 54.6059 306.708 53.065C303.155 56.3823 298.371 58.4154 293.101 58.4154C287.615 58.4154 282.647 56.211 279.051 52.6477C275.455 49.0843 273.23 44.162 273.23 38.726C273.23 33.29 275.455 28.3676 279.051 24.8043C282.647 21.2409 287.615 19.0366 293.101 19.0366C296.567 19.0366 299.829 19.914 302.669 21.4656C302.431 19.7856 302.28 18.7797 302.28 18.769L310.272 17.6348C310.282 17.7097 313.479 39.657 314.732 52.209L320.606 51.2138L321.967 59.1003ZM301.427 30.465C299.3 28.3569 296.351 27.0514 293.101 27.0514C289.85 27.0514 286.902 28.3569 284.775 30.465C282.637 32.5837 281.319 35.5051 281.319 38.726C281.319 41.9469 282.637 44.8682 284.775 46.9763C286.902 49.0843 289.85 50.4005 293.101 50.4005C296.351 50.4005 299.3 49.0843 301.427 46.9763C303.565 44.8682 304.883 41.9469 304.883 38.726C304.883 35.5051 303.565 32.5837 301.427 30.465Z" fill="white"/>
<path d="M137.377 10.0159L137.453 2.86781H138.435L140.034 7.25512L141.643 2.86781H142.625L142.701 10.0159H141.578V5.74631L140.25 9.30967H139.839L138.5 5.77842V10.0159H137.377ZM148.867 10.1122C148.306 10.1122 147.863 10.0052 147.561 9.7805C147.247 9.56649 147.031 9.24546 146.913 8.81743C146.794 8.4001 146.729 7.87577 146.729 7.25512V5.6286C146.729 4.98656 146.794 4.46222 146.923 4.04489C147.042 3.62756 147.258 3.30654 147.571 3.09252C147.885 2.87851 148.317 2.7715 148.867 2.7715C149.472 2.7715 149.926 2.88921 150.206 3.13533C150.498 3.39214 150.682 3.74527 150.779 4.2054C150.865 4.67624 150.908 5.23268 150.908 5.88542V6.46326H148.068V7.89717C148.068 8.18609 148.09 8.42151 148.155 8.60342C148.209 8.78533 148.295 8.92444 148.414 9.01005C148.532 9.09565 148.684 9.13846 148.878 9.13846C149.083 9.13846 149.234 9.08495 149.332 8.98865C149.44 8.90304 149.504 8.76393 149.548 8.58202C149.58 8.41081 149.602 8.19679 149.602 7.96137V7.53334H150.898V7.80086C150.898 8.51781 150.746 9.08495 150.444 9.49158C150.131 9.90891 149.602 10.1122 148.867 10.1122ZM148.068 5.74631H149.602V5.10427C149.602 4.80465 149.591 4.55853 149.548 4.35521C149.515 4.1519 149.45 4.00209 149.342 3.90578C149.245 3.79877 149.083 3.74527 148.856 3.74527C148.64 3.74527 148.479 3.79877 148.36 3.89508C148.252 3.99139 148.176 4.1626 148.133 4.39802C148.09 4.63343 148.068 4.95446 148.068 5.36109V5.74631ZM154.98 10.0159V2.86781H156.319V5.87472H158.025V2.86781H159.364V10.0159H158.025V6.83779H156.319V10.0159H154.98ZM164.375 10.0159V3.85228H163.025V2.86781H167.064V3.85228H165.714V10.0159H164.375ZM172.031 10.1122C171.751 10.1122 171.502 10.0373 171.286 9.87681C171.07 9.7163 170.898 9.50228 170.779 9.25617C170.649 8.99935 170.584 8.73183 170.584 8.45361C170.584 8.01488 170.66 7.64035 170.811 7.33003C170.962 7.03041 171.168 6.77359 171.427 6.55957C171.686 6.34556 171.999 6.16364 172.345 6.00313C172.679 5.85332 173.047 5.70351 173.435 5.5537V5.04006C173.435 4.75114 173.414 4.51572 173.381 4.32311C173.349 4.1412 173.284 3.99139 173.176 3.90578C173.068 3.80947 172.917 3.75597 172.712 3.75597C172.528 3.75597 172.377 3.79877 172.269 3.88438C172.15 3.95928 172.075 4.07699 172.021 4.2375C171.967 4.38732 171.945 4.56923 171.945 4.77254V5.12567L170.628 5.08287C170.638 4.29101 170.822 3.70247 171.168 3.32794C171.524 2.95341 172.064 2.7715 172.798 2.7715C173.511 2.7715 174.019 2.96411 174.321 3.34934C174.612 3.73457 174.764 4.30171 174.764 5.02936V8.2931C174.764 8.51781 174.774 8.73183 174.785 8.93514C174.796 9.14916 174.818 9.33107 174.839 9.51298C174.85 9.6949 174.872 9.85541 174.893 10.0159H173.673C173.641 9.87681 173.608 9.7163 173.576 9.51298C173.533 9.30967 173.511 9.12776 173.489 8.96724C173.414 9.24546 173.252 9.50228 173.014 9.7484C172.777 9.99452 172.453 10.1122 172.031 10.1122ZM172.561 8.97795C172.69 8.97795 172.82 8.93514 172.928 8.86024C173.047 8.78533 173.155 8.71043 173.241 8.61412C173.338 8.51781 173.403 8.44291 173.435 8.3787V6.35626C173.219 6.47397 173.025 6.58097 172.841 6.69868C172.658 6.81639 172.507 6.9341 172.366 7.06251C172.226 7.19092 172.118 7.34073 172.042 7.50124C171.956 7.66175 171.923 7.84366 171.923 8.04698C171.923 8.3359 171.977 8.56062 172.085 8.73183C172.193 8.89234 172.345 8.97795 172.561 8.97795ZM178.446 10.0801V9.07425C178.695 9.07425 178.889 9.02075 179.04 8.92444C179.181 8.82813 179.299 8.65692 179.375 8.42151C179.451 8.18609 179.515 7.87577 179.558 7.46914C179.602 7.07321 179.634 6.57027 179.666 5.97103L179.828 2.86781H183.608V10.0159H182.28V3.87368H181.006L180.887 5.97103C180.854 6.78429 180.79 7.45844 180.714 7.99347C180.628 8.53921 180.509 8.95654 180.347 9.25617C180.174 9.55579 179.958 9.7698 179.677 9.88751C179.397 10.0159 179.04 10.0801 178.597 10.0801H178.446ZM187.82 10.0159V2.86781H189.148V5.82122C189.17 5.82122 189.191 5.82122 189.224 5.82122C189.245 5.82122 189.278 5.82122 189.299 5.82122C189.321 5.82122 189.343 5.82122 189.364 5.82122C189.85 5.83192 190.271 5.86402 190.617 5.92823C190.962 5.99243 191.243 6.09944 191.459 6.24925C191.675 6.39906 191.837 6.61308 191.934 6.88059C192.032 7.14811 192.086 7.49054 192.086 7.90787C192.086 8.3038 192.032 8.62482 191.934 8.89234C191.837 9.15986 191.675 9.37387 191.448 9.54509C191.222 9.7056 190.93 9.82331 190.563 9.89821C190.196 9.97312 189.753 10.0159 189.224 10.0159H187.82ZM189.148 9.23476H189.224C189.645 9.23476 189.98 9.20266 190.228 9.12776C190.466 9.05285 190.638 8.91374 190.736 8.72113C190.833 8.52851 190.887 8.25029 190.887 7.89717C190.887 7.57614 190.844 7.33003 190.757 7.13741C190.671 6.9555 190.509 6.81639 190.282 6.73078C190.055 6.64518 189.721 6.60237 189.289 6.60237C189.278 6.60237 189.256 6.60237 189.224 6.60237C189.191 6.60237 189.17 6.60237 189.148 6.60237V9.23476ZM195.854 10.0159V2.86781H197.183V5.87472H198.889V2.86781H200.228V10.0159H198.889V6.83779H197.183V10.0159H195.854ZM205.725 10.1122C205.444 10.1122 205.196 10.0373 204.98 9.87681C204.764 9.7163 204.591 9.50228 204.472 9.25617C204.343 8.99935 204.289 8.73183 204.289 8.45361C204.289 8.01488 204.353 7.64035 204.505 7.33003C204.656 7.03041 204.861 6.77359 205.12 6.55957C205.39 6.34556 205.692 6.16364 206.038 6.00313C206.384 5.85332 206.74 5.70351 207.129 5.5537V5.04006C207.129 4.75114 207.107 4.51572 207.075 4.32311C207.042 4.1412 206.978 3.99139 206.87 3.90578C206.772 3.80947 206.61 3.75597 206.405 3.75597C206.222 3.75597 206.07 3.79877 205.962 3.88438C205.844 3.95928 205.768 4.07699 205.714 4.2375C205.671 4.38732 205.638 4.56923 205.638 4.77254V5.12567L204.321 5.08287C204.343 4.29101 204.515 3.70247 204.872 3.32794C205.217 2.95341 205.757 2.7715 206.492 2.7715C207.204 2.7715 207.712 2.96411 208.014 3.34934C208.317 3.73457 208.457 4.30171 208.457 5.02936V8.2931C208.457 8.51781 208.468 8.73183 208.479 8.93514C208.489 9.14916 208.511 9.33107 208.533 9.51298C208.554 9.6949 208.576 9.85541 208.587 10.0159H207.366C207.345 9.87681 207.312 9.7163 207.269 9.51298C207.237 9.30967 207.204 9.12776 207.194 8.96724C207.107 9.24546 206.945 9.50228 206.708 9.7484C206.47 9.99452 206.146 10.1122 205.725 10.1122ZM206.254 8.97795C206.384 8.97795 206.513 8.93514 206.632 8.86024C206.74 8.78533 206.848 8.71043 206.945 8.61412C207.032 8.51781 207.096 8.44291 207.129 8.3787V6.35626C206.924 6.47397 206.729 6.58097 206.546 6.69868C206.362 6.81639 206.2 6.9341 206.06 7.06251C205.919 7.19092 205.811 7.34073 205.736 7.50124C205.66 7.66175 205.617 7.84366 205.617 8.04698C205.617 8.3359 205.671 8.56062 205.779 8.73183C205.887 8.89234 206.049 8.97795 206.254 8.97795ZM212.053 10.0159L213.414 6.9876C213.187 6.8913 212.993 6.76289 212.852 6.58097C212.701 6.39906 212.593 6.17434 212.528 5.90682C212.464 5.65001 212.431 5.35038 212.431 5.01866C212.431 4.64413 212.474 4.31241 212.582 4.04489C212.68 3.76667 212.842 3.55266 213.057 3.37074C213.273 3.19953 213.554 3.07112 213.911 2.99622C214.267 2.91061 214.71 2.86781 215.239 2.86781H216.632V10.0159H215.315V7.19092C215.174 7.19092 215.066 7.19092 214.98 7.19092C214.883 7.18022 214.785 7.18022 214.677 7.16952L213.489 10.0159H212.053ZM215.163 6.43116C215.174 6.43116 215.207 6.43116 215.239 6.43116C215.282 6.43116 215.304 6.43116 215.315 6.43116V3.62756C215.304 3.62756 215.282 3.62756 215.239 3.62756C215.207 3.62756 215.185 3.62756 215.174 3.62756C214.785 3.62756 214.472 3.67036 214.245 3.76667C214.019 3.86298 213.857 4.01279 213.759 4.2054C213.673 4.40872 213.63 4.67624 213.63 5.01866C213.63 5.48949 213.738 5.84262 213.943 6.06734C214.159 6.30275 214.559 6.42046 215.163 6.43116ZM227.863 10.1122C227.582 10.1122 227.334 10.0373 227.118 9.87681C226.902 9.7163 226.729 9.50228 226.6 9.25617C226.481 8.99935 226.416 8.73183 226.416 8.45361C226.416 8.01488 226.492 7.64035 226.643 7.33003C226.783 7.03041 226.999 6.77359 227.258 6.55957C227.518 6.34556 227.82 6.16364 228.166 6.00313C228.511 5.85332 228.878 5.70351 229.256 5.5537V5.04006C229.256 4.75114 229.245 4.51572 229.213 4.32311C229.181 4.1412 229.105 3.99139 229.008 3.90578C228.9 3.80947 228.749 3.75597 228.533 3.75597C228.349 3.75597 228.209 3.79877 228.09 3.88438C227.982 3.95928 227.896 4.07699 227.852 4.2375C227.798 4.38732 227.777 4.56923 227.777 4.77254V5.12567L226.448 5.08287C226.47 4.29101 226.654 3.70247 226.999 3.32794C227.345 2.95341 227.896 2.7715 228.619 2.7715C229.343 2.7715 229.85 2.96411 230.142 3.34934C230.444 3.73457 230.595 4.30171 230.595 5.02936V8.2931C230.595 8.51781 230.595 8.73183 230.617 8.93514C230.628 9.14916 230.639 9.33107 230.66 9.51298C230.682 9.6949 230.703 9.85541 230.714 10.0159H229.494C229.472 9.87681 229.44 9.7163 229.407 9.51298C229.364 9.30967 229.343 9.12776 229.321 8.96724C229.235 9.24546 229.083 9.50228 228.846 9.7484C228.608 9.99452 228.274 10.1122 227.863 10.1122ZM228.382 8.97795C228.522 8.97795 228.641 8.93514 228.759 8.86024C228.878 8.78533 228.975 8.71043 229.073 8.61412C229.159 8.51781 229.224 8.44291 229.256 8.3787V6.35626C229.051 6.47397 228.857 6.58097 228.673 6.69868C228.49 6.81639 228.328 6.9341 228.187 7.06251C228.058 7.19092 227.95 7.34073 227.863 7.50124C227.788 7.66175 227.744 7.84366 227.744 8.04698C227.744 8.3359 227.798 8.56062 227.906 8.73183C228.025 8.89234 228.176 8.97795 228.382 8.97795ZM234.731 12.3594V2.86781H236.071V3.43495C236.233 3.25303 236.416 3.10322 236.643 2.96411C236.87 2.8357 237.14 2.7715 237.442 2.7715C237.82 2.7715 238.112 2.86781 238.338 3.06042C238.554 3.25303 238.716 3.49915 238.824 3.78807C238.932 4.07699 239.008 4.37661 239.04 4.67624C239.073 4.97586 239.094 5.23268 239.094 5.44669V7.18022C239.094 7.68315 239.04 8.16469 238.943 8.61412C238.835 9.06355 238.662 9.42738 238.392 9.6949C238.133 9.97312 237.766 10.1122 237.291 10.1122C237.032 10.1122 236.805 10.048 236.61 9.91961C236.405 9.7912 236.233 9.65209 236.071 9.48088V12.3594H234.731ZM237.032 9.07425C237.269 9.07425 237.431 8.98865 237.528 8.81743C237.626 8.65692 237.69 8.42151 237.712 8.13258C237.744 7.84366 237.755 7.53334 237.755 7.18022V5.44669C237.755 5.15777 237.734 4.87955 237.701 4.63343C237.669 4.37661 237.604 4.184 237.496 4.03419C237.388 3.88438 237.215 3.80947 236.978 3.80947C236.805 3.80947 236.643 3.84158 236.481 3.91648C236.33 3.99139 236.189 4.07699 236.071 4.184V8.75323C236.2 8.83884 236.341 8.92444 236.492 8.97795C236.654 9.04215 236.826 9.07425 237.032 9.07425ZM243.155 10.0159V2.86781H244.278V7.67245L246.449 2.86781H247.496V10.0159H246.405V5.16847L244.245 10.0159H243.155ZM254.202 12.3594V9.61999H254.073C253.803 9.61999 253.511 9.58789 253.22 9.51298C252.928 9.43808 252.658 9.30967 252.41 9.12776C252.161 8.93514 251.967 8.65692 251.805 8.2931C251.654 7.92927 251.578 7.45844 251.578 6.88059V5.5965C251.578 5.13637 251.643 4.74044 251.773 4.40872C251.902 4.08769 252.075 3.80947 252.312 3.60616C252.539 3.39214 252.798 3.24233 253.09 3.13533C253.392 3.03902 253.706 2.99622 254.04 2.99622H254.202V0H255.433V2.99622H255.649C256.081 2.99622 256.492 3.08182 256.859 3.25303C257.226 3.43495 257.518 3.71317 257.734 4.09839C257.95 4.48362 258.068 4.98656 258.068 5.5965V6.88059C258.068 7.45844 257.993 7.92927 257.842 8.2931C257.69 8.65692 257.496 8.93514 257.248 9.12776C256.999 9.30967 256.74 9.43808 256.449 9.51298C256.168 9.58789 255.887 9.61999 255.606 9.61999H255.433V12.3594H254.202ZM254.105 8.67832H254.202V3.85228H254.073C253.814 3.85228 253.587 3.89508 253.403 3.98069C253.209 4.06629 253.058 4.2161 252.95 4.44082C252.842 4.66554 252.788 4.98656 252.788 5.40389V6.86989C252.788 7.35143 252.842 7.71525 252.939 7.98277C253.036 8.23959 253.187 8.42151 253.382 8.52851C253.587 8.62482 253.824 8.67832 254.105 8.67832ZM255.433 8.67832H255.509C255.801 8.67832 256.049 8.62482 256.243 8.52851C256.449 8.42151 256.6 8.23959 256.697 7.98277C256.805 7.71525 256.859 7.35143 256.859 6.86989V5.40389C256.859 4.98656 256.805 4.66554 256.697 4.44082C256.589 4.2161 256.438 4.06629 256.233 3.98069C256.038 3.89508 255.811 3.85228 255.541 3.85228H255.433V8.67832ZM262.097 10.0159L262.172 2.86781H263.155L264.753 7.25512L266.362 2.86781H267.345L267.421 10.0159H266.297V5.74631L264.969 9.30967H264.548L263.22 5.77842V10.0159H262.097ZM273.587 10.1122C273.014 10.1122 272.583 10.0052 272.28 9.7805C271.967 9.56649 271.751 9.24546 271.632 8.81743C271.513 8.4001 271.449 7.87577 271.449 7.25512V5.6286C271.449 4.98656 271.513 4.46222 271.643 4.04489C271.762 3.62756 271.978 3.30654 272.291 3.09252C272.604 2.87851 273.036 2.7715 273.587 2.7715C274.192 2.7715 274.634 2.88921 274.926 3.13533C275.217 3.39214 275.401 3.74527 275.498 4.2054C275.585 4.67624 275.628 5.23268 275.628 5.88542V6.46326H272.788V7.89717C272.788 8.18609 272.809 8.42151 272.863 8.60342C272.917 8.78533 273.004 8.92444 273.133 9.01005C273.252 9.09565 273.403 9.13846 273.598 9.13846C273.792 9.13846 273.954 9.08495 274.051 8.98865C274.159 8.90304 274.224 8.76393 274.267 8.58202C274.3 8.41081 274.321 8.19679 274.321 7.96137V7.53334H275.617V7.80086C275.617 8.51781 275.466 9.08495 275.153 9.49158C274.85 9.90891 274.321 10.1122 273.587 10.1122ZM272.788 5.74631H274.321V5.10427C274.321 4.80465 274.3 4.55853 274.267 4.35521C274.235 4.1519 274.17 4.00209 274.062 3.90578C273.965 3.79877 273.792 3.74527 273.576 3.74527C273.36 3.74527 273.187 3.79877 273.079 3.89508C272.971 3.99139 272.896 4.1626 272.852 4.39802C272.809 4.63343 272.788 4.95446 272.788 5.36109V5.74631ZM280.455 10.0159V3.85228H279.116V2.86781H283.155V3.85228H281.794V10.0159H280.455ZM286.827 10.0159V2.86781H287.95V7.67245L290.12 2.86781H291.168V10.0159H290.066V5.16847L287.907 10.0159H286.827ZM295.38 10.0159V2.86781H296.719V5.88542H297.086L298.446 2.86781H299.818L298.317 6.33486L299.85 10.0159H298.446L297.086 6.67728H296.719V10.0159H295.38ZM304.71 10.1122C304.429 10.1122 304.181 10.0373 303.965 9.87681C303.749 9.7163 303.576 9.50228 303.457 9.25617C303.328 8.99935 303.263 8.73183 303.263 8.45361C303.263 8.01488 303.339 7.64035 303.49 7.33003C303.641 7.03041 303.846 6.77359 304.105 6.55957C304.364 6.34556 304.678 6.16364 305.012 6.00313C305.358 5.85332 305.725 5.70351 306.114 5.5537V5.04006C306.114 4.75114 306.092 4.51572 306.06 4.32311C306.028 4.1412 305.952 3.99139 305.855 3.90578C305.747 3.80947 305.596 3.75597 305.39 3.75597C305.207 3.75597 305.056 3.79877 304.948 3.88438C304.829 3.95928 304.753 4.07699 304.699 4.2375C304.645 4.38732 304.624 4.56923 304.624 4.77254V5.12567L303.306 5.08287C303.317 4.29101 303.5 3.70247 303.846 3.32794C304.202 2.95341 304.742 2.7715 305.477 2.7715C306.19 2.7715 306.697 2.96411 306.999 3.34934C307.291 3.73457 307.442 4.30171 307.442 5.02936V8.2931C307.442 8.51781 307.453 8.73183 307.464 8.93514C307.475 9.14916 307.496 9.33107 307.518 9.51298C307.529 9.6949 307.55 9.85541 307.572 10.0159H306.341C306.319 9.87681 306.287 9.7163 306.254 9.51298C306.211 9.30967 306.19 9.12776 306.168 8.96724C306.092 9.24546 305.93 9.50228 305.693 9.7484C305.455 9.99452 305.131 10.1122 304.71 10.1122ZM305.239 8.97795C305.369 8.97795 305.498 8.93514 305.606 8.86024C305.725 8.78533 305.833 8.71043 305.92 8.61412C306.017 8.51781 306.071 8.44291 306.114 8.3787V6.35626C305.898 6.47397 305.704 6.58097 305.52 6.69868C305.336 6.81639 305.174 6.9341 305.045 7.06251C304.904 7.19092 304.796 7.34073 304.721 7.50124C304.634 7.66175 304.602 7.84366 304.602 8.04698C304.602 8.3359 304.656 8.56062 304.764 8.73183C304.872 8.89234 305.023 8.97795 305.239 8.97795Z" fill="white"/>
</svg>
