<?xml version="1.0" encoding="UTF-8"?>
<!DOCTYPE svg PUBLIC "-//W3C//DTD SVG 1.1//EN" "http://www.w3.org/Graphics/SVG/1.1/DTD/svg11.dtd">
<!-- Creator: CorelDRAW 2018 (64-Bit) -->
<svg xmlns="http://www.w3.org/2000/svg" xml:space="preserve" width="474px" height="433px" version="1.1" style="shape-rendering:geometricPrecision; text-rendering:geometricPrecision; image-rendering:optimizeQuality; fill-rule:evenodd; clip-rule:evenodd"
viewBox="0 0 9.79 8.96"
 xmlns:xlink="http://www.w3.org/1999/xlink">
 <defs>
  <style type="text/css">
   <![CDATA[
    .str0 {stroke:white;stroke-width:0.05;stroke-miterlimit:22.9256}
    .fil5 {fill:none}
    .fil1 {fill:#BFCEDF}
    .fil3 {fill:#ED5E3D}
    .fil4 {fill:white}
    .fil0 {fill:black;fill-rule:nonzero}
    .fil6 {fill:#003348;fill-rule:nonzero}
    .fil2 {fill:white;fill-rule:nonzero}
    .fil9 {fill:url(#id0)}
    .fil8 {fill:url(#id1)}
    .fil7 {fill:url(#id2)}
   ]]>
  </style>
  <linearGradient id="id0" gradientUnits="userSpaceOnUse" x1="6.2" y1="8.41" x2="3.8" y2="5.91">
   <stop offset="0" style="stop-opacity:1; stop-color:#E0EBFF"/>
   <stop offset="1" style="stop-opacity:1; stop-color:#FEFEFE"/>
  </linearGradient>
  <radialGradient id="id1" gradientUnits="userSpaceOnUse" gradientTransform="matrix(0.524082 -0 -0 1.16506 3 -1)" cx="6.74" cy="6.15" r="3.79" fx="6.74" fy="6.15">
   <stop offset="0" style="stop-opacity:1; stop-color:#FEFEFE"/>
   <stop offset="1" style="stop-opacity:1; stop-color:#E0EBFF"/>
  </radialGradient>
  <radialGradient id="id2" gradientUnits="userSpaceOnUse" gradientTransform="matrix(0.437539 -0 -0 1.09042 5 -1)" xlink:href="#id1" cx="8.81" cy="7.07" r="1.89" fx="8.81" fy="7.07">
  </radialGradient>
 </defs>
 <g id="Слой_x0020_1">
  <metadata id="CorelCorpID_0Corel-Layer"/>
  <g id="_1741473199760">
   <g>
    <path class="fil0" d="M4.03 6.29c-0.02,0.02 -0.05,0.03 -0.07,0.01 -0.03,-0.01 -0.03,-0.05 -0.02,-0.07l0.14 -0.21c0.02,-0.02 0.05,-0.03 0.08,-0.01 0.02,0.02 0.03,0.05 0.01,0.07l-0.14 0.21z"/>
    <path class="fil0" d="M4.15 6.5c-0.02,0.02 -0.05,0.03 -0.08,0.01 -0.02,-0.01 -0.03,-0.04 -0.01,-0.07l0.14 -0.21c0.01,-0.02 0.05,-0.03 0.07,-0.01 0.03,0.02 0.03,0.05 0.02,0.07l-0.14 0.21z"/>
    <path class="fil0" d="M4.24 6.72c-0.01,0.02 -0.04,0.03 -0.07,0.01 -0.02,-0.01 -0.03,-0.05 -0.01,-0.07l0.14 -0.21c0.01,-0.02 0.05,-0.03 0.07,-0.01 0.02,0.01 0.03,0.05 0.01,0.07l-0.14 0.21z"/>
   </g>
   <path class="fil1" d="M5.51 2.45c-0.07,0.02 -0.7,0.16 -0.76,0.16 -0.06,-0.01 0.62,1.16 0.9,1.09 0.27,-0.07 -0.14,-1.25 -0.14,-1.25z"/>
   <path class="fil0" d="M5.02 2.54c0.02,0 0.03,0.01 0.04,0.04 -0.15,0.02 -0.15,0.36 -0.07,0.44 -0.01,0.03 -0.02,0.04 -0.03,0.03 -0.02,0 -0.2,-0.32 -0.23,-0.36 -0.01,-0.02 -0.01,-0.05 0,-0.06 0.03,-0.06 0.24,-0.09 0.29,-0.09z"/>
   <g>
    <path class="fil2" d="M0 0.09c0.01,0.01 2.06,5.37 0.96,7.71l0.01 0.01c1.1,-2.35 -0.95,-7.71 -0.96,-7.73l-0.01 0.01z"/>
    <path class="fil3" d="M0.97 8.01c0,0 -0.16,0.04 -0.16,0.25 0,0.1 0,0.03 0,0.14 0,0.02 0.07,0.04 0.16,0.04 0.08,0 0.15,-0.02 0.15,-0.04 0,-0.11 0,-0.04 0,-0.14 0,-0.21 -0.15,-0.25 -0.15,-0.25z"/>
    <path class="fil4" d="M0.81 8.26l0 0.08c0,0.02 0.07,0.04 0.16,0.04 0.08,0 0.15,-0.02 0.15,-0.04l0 -0.08c0,0.02 -0.07,0.04 -0.15,0.04 -0.09,0 -0.16,-0.02 -0.16,-0.04z"/>
    <path class="fil5 str0" d="M0.65 8.42c0,0.05 0.14,0.09 0.32,0.09 0.17,0 0.31,-0.04 0.31,-0.09"/>
    <path class="fil2" d="M0.98 8.01l0 0 0 -0.2 0 0c0,0 -0.01,0 -0.01,0 -0.01,0 -0.02,0 -0.02,0l0 0 0 0.2 0 0c0,0.01 0.01,0.01 0.02,0.01 0,0 0.01,0 0.01,-0.01z"/>
    <path class="fil5 str0" d="M0.49 8.49c0,0.07 0.21,0.13 0.48,0.13 0.26,0 0.47,-0.06 0.47,-0.13"/>
    <path class="fil2" d="M3.42 5.28c0.35,0.59 0.69,1.19 1.03,1.79l0 0.01 -0.01 -0.01c-0.33,-0.6 -0.67,-1.2 -1.03,-1.79 -0.35,-0.59 -0.72,-1.18 -1.09,-1.76 -0.37,-0.58 -0.75,-1.16 -1.13,-1.73 -0.39,-0.58 -0.78,-1.14 -1.18,-1.7l0.01 -0.01c0.4,0.56 0.79,1.13 1.18,1.7 0.38,0.57 0.76,1.15 1.13,1.73 0.37,0.59 0.73,1.17 1.09,1.77z"/>
    <path class="fil6" d="M0.38 0.5c-0.09,-0.12 -0.18,-0.25 -0.26,-0.37 -0.01,0.01 -0.01,0.01 -0.01,0.01 -0.01,0.01 -0.02,0.02 -0.03,0.02l-0.02 -0.02c0.01,0 0.01,0 0.01,0 0.01,0 0.02,0 0.03,-0.01 0,0 0,-0.01 0.01,-0.01l-0.05 -0.06c-0.01,0 -0.01,0 -0.02,0.01 -0.01,0.01 -0.01,0.02 -0.01,0.03 0,0.01 0,0.02 0.01,0.03l0.02 0.03c-0.01,0 -0.02,-0.01 -0.03,-0.02 -0.01,-0.01 -0.02,-0.02 -0.02,-0.04 0,-0.02 0.01,-0.03 0.02,-0.04 0.01,-0.01 0.01,-0.01 0.02,-0.02l-0.01 -0.01 0.03 -0.03c0.53,0.71 1.04,1.44 1.54,2.17 0.5,0.74 0.99,1.48 1.46,2.23 0.48,0.75 0.93,1.51 1.38,2.28 0.43,0.76 0.82,1.49 1.2,2.28l-0.17 0c-0.36,-0.77 -0.73,-1.47 -1.14,-2.22 -0.09,-0.16 -0.18,-0.32 -0.27,-0.48 -0.01,0 -0.01,0 -0.01,0.01 -0.01,0.01 -0.03,0.02 -0.05,0.02l-0.02 -0.02c0.01,0 0.02,0 0.02,0 0.01,0 0.03,-0.01 0.04,-0.02 0,0 0,-0.01 0.01,-0.01l-0.05 -0.08c-0.01,0 -0.02,0 -0.03,0.01 -0.01,0.01 -0.02,0.03 -0.02,0.04 0,0.02 0.02,0.04 0.02,0.05l0.02 0.03c-0.02,-0.01 -0.03,-0.01 -0.04,-0.02 -0.01,-0.02 -0.02,-0.04 -0.02,-0.06 0,-0.02 0.01,-0.04 0.02,-0.05 0.01,-0.01 0.03,-0.02 0.04,-0.02 -0.33,-0.57 -0.66,-1.13 -1.01,-1.69 -0.08,-0.13 -0.15,-0.25 -0.23,-0.38 0,0.01 -0.01,0.01 -0.01,0.01 -0.01,0.02 -0.03,0.02 -0.05,0.02l-0.01 -0.02c0,0.01 0.01,0.01 0.01,0.01 0.02,0 0.03,-0.01 0.04,-0.02 0,0 0,-0.01 0.01,-0.01l-0.05 -0.08c-0.01,0 -0.02,0 -0.03,0.01 -0.01,0.01 -0.01,0.03 -0.01,0.04 0,0.02 0,0.03 0.01,0.04l0.02 0.03c-0.01,0 -0.02,-0.01 -0.03,-0.02 -0.02,-0.01 -0.02,-0.03 -0.02,-0.05 0,-0.02 0,-0.04 0.02,-0.05 0,-0.01 0.01,-0.02 0.03,-0.02 -0.37,-0.59 -0.75,-1.17 -1.14,-1.75l-0.04 -0.06c0,0.01 0,0.01 0,0.01 -0.01,0.01 -0.03,0.02 -0.05,0.02l-0.01 -0.02c0,0 0.01,0 0.01,0 0.01,0 0.03,0 0.04,-0.01 0,-0.01 0,-0.01 0,-0.01l-0.05 -0.09c-0.01,0.01 -0.02,0.01 -0.02,0.02 -0.01,0.01 -0.02,0.02 -0.02,0.04 0,0.01 0.01,0.03 0.02,0.04l0.02 0.03c-0.01,0 -0.03,-0.01 -0.04,-0.02 -0.01,-0.01 -0.02,-0.03 -0.02,-0.05 0,-0.02 0.01,-0.04 0.02,-0.05 0.01,-0.01 0.02,-0.02 0.03,-0.02 -0.34,-0.51 -0.72,-1.06 -1.06,-1.54z"/>
   </g>
   <path class="fil7" d="M8.69 8.96c0.45,-0.19 0.97,-0.58 1.01,-1.33l0.09 0.05 -0.09 -0.32 0.06 0.04 -0.13 -0.38c-0.32,-1.37 -1.65,-2 -1.65,-2l0.09 3.94 0.62 0z"/>
   <path class="fil8" d="M5.4 2.89c0,0 -0.05,-0.56 0.16,-0.91 -0.11,-0.05 -0.19,-0.16 -0.19,-0.29 0,-0.18 0.14,-0.32 0.32,-0.32 0.18,0 0.33,0.14 0.33,0.32 0,0 0,0.01 0,0.01l0 0c0.73,0 1.05,0 1.05,0 0,0 0.06,0 0.14,0.02 0.01,-0.16 0.15,-0.29 0.33,-0.29 0.18,0 0.32,0.14 0.32,0.31 0,0.17 -0.13,0.3 -0.29,0.32 0.03,0.06 0.06,0.14 0.08,0.22 0.05,0.18 0.07,0.34 0.07,0.5l0.09 0.23 -0.06 -0.05 0.1 0.29 -0.09 -0.06 0.16 0.37 -0.13 -0.07c0.03,0.13 0.09,0.28 0.17,0.44 0.34,0.69 0.97,2.43 1.02,2.86 0.03,0.23 0.23,1.25 0.03,2.17l-4.25 0c-0.05,-0.34 0,-0.61 0,-0.61 0,0 0.94,-1.91 0.94,-3.06 0,-1.16 -0.11,-0.95 -0.3,-2.4z"/>
   <path class="fil9" d="M5.7 5.1c0,0 -0.48,2.3 -0.93,1.81 -0.2,-0.21 -0.37,-0.36 -0.51,-0.45 -0.14,-0.09 -0.21,-0.36 -0.3,-0.35 -0.14,0.01 -0.25,0.37 -0.29,0.55 -0.08,0.46 0.11,1.3 0.29,1.74l0.03 -0.08 0.12 0.3 0.03 -0.08 0.14 0.35 0.04 -0.2c0.11,0.12 0.22,0.21 0.33,0.27l0.64 0c0.86,-0.5 1.26,-2.94 0.41,-3.86z"/>
  </g>
 </g>
</svg>
