<svg width="32" height="32" viewBox="0 0 32 32" fill="none" xmlns="http://www.w3.org/2000/svg">
<path d="M11.9265 19.2998C11.3982 19.2998 10.9562 19.1195 10.6007 18.759C10.2451 18.3984 10.0673 17.9539 10.0673 17.4256C10.0673 16.8973 10.2476 16.4554 10.6082 16.0998C10.9687 15.7443 11.4132 15.5665 11.9415 15.5665C12.4698 15.5665 12.9118 15.7467 13.2673 16.1073C13.6229 16.4679 13.8007 16.9123 13.8007 17.4406C13.8007 17.969 13.6204 18.4109 13.2598 18.7665C12.8992 19.122 12.4548 19.2998 11.9265 19.2998ZM20.0932 19.2998C19.5648 19.2998 19.1229 19.1195 18.7673 18.759C18.4118 18.3984 18.234 17.9539 18.234 17.4256C18.234 16.8973 18.4143 16.4554 18.7748 16.0998C19.1354 15.7443 19.5798 15.5665 20.1082 15.5665C20.6365 15.5665 21.084 15.7467 21.4507 16.1073C21.8173 16.4679 22.0007 16.9123 22.0007 17.4406C22.0007 17.969 21.8148 18.4109 21.4432 18.7665C21.0715 19.122 20.6215 19.2998 20.0932 19.2998ZM16.0007 27.0331C19.0757 27.0331 21.6889 25.9663 23.8403 23.8327C25.9916 21.6991 27.0673 19.0951 27.0673 16.0209C27.0673 15.4469 27.0229 14.8955 26.934 14.3667C26.8451 13.8378 26.734 13.3488 26.6007 12.8998C26.1562 13.0331 25.6892 13.1165 25.1996 13.1498C24.71 13.1831 24.1789 13.1998 23.6062 13.1998C21.4888 13.1998 19.4975 12.772 17.6321 11.9165C15.7667 11.0609 14.1673 9.82203 12.834 8.19981C12.1007 9.93314 11.0507 11.4498 9.68398 12.7498C8.31732 14.0498 6.75621 15.0665 5.00065 15.7998V16.0331C5.00065 19.104 6.06936 21.705 8.20678 23.8363C10.3442 25.9675 12.9422 27.0331 16.0007 27.0331ZM16.0294 30.1665C14.0733 30.1665 12.235 29.7943 10.5146 29.0498C8.7942 28.3054 7.28895 27.2919 5.99888 26.0093C4.70884 24.7268 3.69217 23.2261 2.94888 21.5073C2.20562 19.7886 1.83398 17.952 1.83398 15.9978C1.83398 14.0436 2.20562 12.2078 2.94888 10.4906C3.69217 8.77338 4.70884 7.27338 5.99888 5.9906C7.28895 4.70785 8.7955 3.68869 10.5185 2.93314C12.2415 2.17758 14.0825 1.7998 16.0416 1.7998C18.0006 1.7998 19.8352 2.17758 21.5452 2.93314C23.2553 3.68869 24.7532 4.70536 26.0388 5.98314C27.3245 7.26092 28.3395 8.76032 29.084 10.4813C29.8284 12.2023 30.2007 14.0412 30.2007 15.998C30.2007 17.9548 29.8295 19.793 29.0872 21.5127C28.3449 23.2325 27.3295 24.7346 26.0411 26.0193C24.7527 27.3039 23.249 28.3162 21.53 29.0563C19.811 29.7964 17.9774 30.1665 16.0294 30.1665ZM12.934 5.0998C14.8895 7.38869 16.6951 8.95536 18.3507 9.7998C20.0062 10.6442 21.8229 11.0665 23.8007 11.0665C24.334 11.0665 24.7562 11.0554 25.0673 11.0331C25.3784 11.0109 25.7229 10.9442 26.1007 10.8331C25.1007 9.03314 23.7395 7.55536 22.0173 6.39981C20.2951 5.24425 18.2895 4.66647 16.0007 4.66647C15.4007 4.66647 14.834 4.71092 14.3007 4.7998C13.7673 4.88869 13.3118 4.98869 12.934 5.0998ZM4.96732 13.3998C6.03398 12.9998 7.25065 12.0942 8.61732 10.6831C9.98398 9.27203 10.9562 7.56647 11.534 5.56647C9.60065 6.43314 8.13954 7.53869 7.15065 8.88314C6.16176 10.2276 5.43398 11.7331 4.96732 13.3998Z" fill="white"/>
</svg>
